<svg width="96" height="11" viewBox="0 0 96 11" fill="none" xmlns="http://www.w3.org/2000/svg">
<path d="M4.716 10.084C3.932 10.084 3.212 9.9 2.556 9.532C1.9 9.164 1.38 8.656 0.996 8.008C0.612 7.352 0.42 6.612 0.42 5.788C0.42 4.972 0.612 4.24 0.996 3.592C1.38 2.936 1.9 2.424 2.556 2.056C3.212 1.688 3.932 1.504 4.716 1.504C5.508 1.504 6.228 1.688 6.876 2.056C7.532 2.424 8.048 2.936 8.424 3.592C8.808 4.24 9 4.972 9 5.788C9 6.612 8.808 7.352 8.424 8.008C8.048 8.656 7.532 9.164 6.876 9.532C6.22 9.9 5.5 10.084 4.716 10.084ZM4.716 8.584C5.22 8.584 5.664 8.472 6.048 8.248C6.432 8.016 6.732 7.688 6.948 7.264C7.164 6.84 7.272 6.348 7.272 5.788C7.272 5.228 7.164 4.74 6.948 4.324C6.732 3.9 6.432 3.576 6.048 3.352C5.664 3.128 5.22 3.016 4.716 3.016C4.212 3.016 3.764 3.128 3.372 3.352C2.988 3.576 2.688 3.9 2.472 4.324C2.256 4.74 2.148 5.228 2.148 5.788C2.148 6.348 2.256 6.84 2.472 7.264C2.688 7.688 2.988 8.016 3.372 8.248C3.764 8.472 4.212 8.584 4.716 8.584ZM11.9299 4.384C12.1459 4.032 12.4259 3.756 12.7699 3.556C13.1219 3.356 13.5219 3.256 13.9699 3.256V5.02H13.5259C12.9979 5.02 12.5979 5.144 12.3259 5.392C12.0619 5.64 11.9299 6.072 11.9299 6.688V10H10.2499V3.352H11.9299V4.384ZM17.5288 6.676C17.5288 5.988 17.6688 5.388 17.9488 4.876C18.2288 4.356 18.6168 3.956 19.1128 3.676C19.6088 3.388 20.1768 3.244 20.8168 3.244C21.6408 3.244 22.3208 3.452 22.8568 3.868C23.4008 4.276 23.7648 4.852 23.9488 5.596H22.1368C22.0408 5.308 21.8768 5.084 21.6448 4.924C21.4208 4.756 21.1408 4.672 20.8048 4.672C20.3248 4.672 19.9448 4.848 19.6648 5.2C19.3848 5.544 19.2448 6.036 19.2448 6.676C19.2448 7.308 19.3848 7.8 19.6648 8.152C19.9448 8.496 20.3248 8.668 20.8048 8.668C21.4848 8.668 21.9288 8.364 22.1368 7.756H23.9488C23.7648 8.476 23.4008 9.048 22.8568 9.472C22.3128 9.896 21.6328 10.108 20.8168 10.108C20.1768 10.108 19.6088 9.968 19.1128 9.688C18.6168 9.4 18.2288 9 17.9488 8.488C17.6688 7.968 17.5288 7.364 17.5288 6.676ZM28.1316 10.108C27.4916 10.108 26.9156 9.968 26.4036 9.688C25.8916 9.4 25.4876 8.996 25.1916 8.476C24.9036 7.956 24.7596 7.356 24.7596 6.676C24.7596 5.996 24.9076 5.396 25.2036 4.876C25.5076 4.356 25.9196 3.956 26.4396 3.676C26.9596 3.388 27.5396 3.244 28.1796 3.244C28.8196 3.244 29.3996 3.388 29.9196 3.676C30.4396 3.956 30.8476 4.356 31.1436 4.876C31.4476 5.396 31.5996 5.996 31.5996 6.676C31.5996 7.356 31.4436 7.956 31.1316 8.476C30.8276 8.996 30.4116 9.4 29.8836 9.688C29.3636 9.968 28.7796 10.108 28.1316 10.108ZM28.1316 8.644C28.4356 8.644 28.7196 8.572 28.9836 8.428C29.2556 8.276 29.4716 8.052 29.6316 7.756C29.7916 7.46 29.8716 7.1 29.8716 6.676C29.8716 6.044 29.7036 5.56 29.3676 5.224C29.0396 4.88 28.6356 4.708 28.1556 4.708C27.6756 4.708 27.2716 4.88 26.9436 5.224C26.6236 5.56 26.4636 6.044 26.4636 6.676C26.4636 7.308 26.6196 7.796 26.9316 8.14C27.2516 8.476 27.6516 8.644 28.1316 8.644ZM36.5159 3.256C37.3079 3.256 37.9479 3.508 38.4359 4.012C38.9239 4.508 39.1679 5.204 39.1679 6.1V10H37.4879V6.328C37.4879 5.8 37.3559 5.396 37.0919 5.116C36.8279 4.828 36.4679 4.684 36.0119 4.684C35.5479 4.684 35.1799 4.828 34.9079 5.116C34.6439 5.396 34.5119 5.8 34.5119 6.328V10H32.8319V3.352H34.5119V4.18C34.7359 3.892 35.0199 3.668 35.3639 3.508C35.7159 3.34 36.0999 3.256 36.5159 3.256ZM44.4495 3.256C45.2415 3.256 45.8815 3.508 46.3695 4.012C46.8575 4.508 47.1015 5.204 47.1015 6.1V10H45.4215V6.328C45.4215 5.8 45.2895 5.396 45.0255 5.116C44.7615 4.828 44.4015 4.684 43.9455 4.684C43.4815 4.684 43.1135 4.828 42.8415 5.116C42.5775 5.396 42.4455 5.8 42.4455 6.328V10H40.7655V3.352H42.4455V4.18C42.6695 3.892 42.9535 3.668 43.2975 3.508C43.6495 3.34 44.0335 3.256 44.4495 3.256ZM54.8791 6.532C54.8791 6.772 54.8631 6.988 54.8311 7.18H49.9711C50.0111 7.66 50.1791 8.036 50.4751 8.308C50.7711 8.58 51.1351 8.716 51.5671 8.716C52.1911 8.716 52.6351 8.448 52.8991 7.912H54.7111C54.5191 8.552 54.1511 9.08 53.6071 9.496C53.0631 9.904 52.3951 10.108 51.6031 10.108C50.9631 10.108 50.3871 9.968 49.8751 9.688C49.3711 9.4 48.9751 8.996 48.6871 8.476C48.4071 7.956 48.2671 7.356 48.2671 6.676C48.2671 5.988 48.4071 5.384 48.6871 4.864C48.9671 4.344 49.3591 3.944 49.8631 3.664C50.3671 3.384 50.9471 3.244 51.6031 3.244C52.2351 3.244 52.7991 3.38 53.2951 3.652C53.7991 3.924 54.1871 4.312 54.4591 4.816C54.7391 5.312 54.8791 5.884 54.8791 6.532ZM53.1391 6.052C53.1311 5.62 52.9751 5.276 52.6711 5.02C52.3671 4.756 51.9951 4.624 51.5551 4.624C51.1391 4.624 50.7871 4.752 50.4991 5.008C50.2191 5.256 50.0471 5.604 49.9831 6.052H53.1391ZM55.6733 6.676C55.6733 5.988 55.8133 5.388 56.0933 4.876C56.3733 4.356 56.7613 3.956 57.2573 3.676C57.7533 3.388 58.3213 3.244 58.9613 3.244C59.7853 3.244 60.4653 3.452 61.0013 3.868C61.5453 4.276 61.9093 4.852 62.0933 5.596H60.2813C60.1853 5.308 60.0213 5.084 59.7893 4.924C59.5653 4.756 59.2853 4.672 58.9493 4.672C58.4693 4.672 58.0893 4.848 57.8093 5.2C57.5293 5.544 57.3893 6.036 57.3893 6.676C57.3893 7.308 57.5293 7.8 57.8093 8.152C58.0893 8.496 58.4693 8.668 58.9493 8.668C59.6293 8.668 60.0733 8.364 60.2813 7.756H62.0933C61.9093 8.476 61.5453 9.048 61.0013 9.472C60.4573 9.896 59.7773 10.108 58.9613 10.108C58.3213 10.108 57.7533 9.968 57.2573 9.688C56.7613 9.4 56.3733 9 56.0933 8.488C55.8133 7.968 55.6733 7.364 55.6733 6.676ZM65.2801 4.732V7.948C65.2801 8.172 65.3321 8.336 65.4361 8.44C65.5481 8.536 65.7321 8.584 65.9881 8.584H66.7681V10H65.7121C64.2961 10 63.5881 9.312 63.5881 7.936V4.732H62.7961V3.352H63.5881V1.708H65.2801V3.352H66.7681V4.732H65.2801ZM80.0518 3.352L78.1078 10H76.2958L75.0838 5.356L73.8718 10H72.0478L70.0918 3.352H71.7958L72.9718 8.416L74.2438 3.352H76.0198L77.2678 8.404L78.4438 3.352H80.0518ZM81.8128 2.56C81.5168 2.56 81.2688 2.468 81.0688 2.284C80.8768 2.092 80.7808 1.856 80.7808 1.576C80.7808 1.296 80.8768 1.064 81.0688 0.879999C81.2688 0.687999 81.5168 0.592 81.8128 0.592C82.1088 0.592 82.3528 0.687999 82.5448 0.879999C82.7448 1.064 82.8448 1.296 82.8448 1.576C82.8448 1.856 82.7448 2.092 82.5448 2.284C82.3528 2.468 82.1088 2.56 81.8128 2.56ZM82.6408 3.352V10H80.9608V3.352H82.6408ZM86.2567 4.732V7.948C86.2567 8.172 86.3087 8.336 86.4127 8.44C86.5247 8.536 86.7087 8.584 86.9647 8.584H87.7447V10H86.6887C85.2727 10 84.5647 9.312 84.5647 7.936V4.732H83.7727V3.352H84.5647V1.708H86.2567V3.352H87.7447V4.732H86.2567ZM92.697 3.256C93.201 3.256 93.649 3.368 94.041 3.592C94.433 3.808 94.737 4.132 94.953 4.564C95.177 4.988 95.289 5.5 95.289 6.1V10H93.609V6.328C93.609 5.8 93.477 5.396 93.213 5.116C92.949 4.828 92.589 4.684 92.133 4.684C91.669 4.684 91.301 4.828 91.029 5.116C90.765 5.396 90.633 5.8 90.633 6.328V10H88.953V1.12H90.633V4.18C90.849 3.892 91.137 3.668 91.497 3.508C91.857 3.34 92.257 3.256 92.697 3.256Z" fill="black"/>
</svg>
